<svg xmlns="http://www.w3.org/2000/svg" enable-background="new 0 0 420 248" xml:space="preserve" height="512" width="512" version="1.1" y="0px" x="0px" viewBox="0 0 512 512">
<path d="m252 182c-54 0-98 14-98 30v18l74 74v61c0 7 11 12 24 12s24-5 24-12v-61l74-74v-18c0-17-44-30-98-30zm-80 26c5-3 11-5 18-7 17-5 38-7 61-7 22 0 44 2 61 7 7 2 14 5 18 7 3.0231 2 5 3 5 4-1 1-2 2-5 5-5 2-11 5-18 7-16 5-38 7-61 7s-44-2-61-7c-7-2-14-5-18-7-3-2-5-3-5-4 1-1 2-2 5-4z" fill="#d0494b"/>
<path fill="#f2f2f2" d="m244 89c24 6 5 44 0 64-6 27-6 28 0 59 0 3 3 5 6 5h1c3-1 6-4 5-7-6-28-6-28 0-54 5-21 18-17 18-17-3 43 101 29 101 29s-75-97-99-40c0 0-15 5-14-3 4-27 0-38-17-45 7-51-104-23-104-23s82 84 101 32z"/>
<g fill="#d0494b"><circle cy="410" cx="244" r="12"/><circle cy="430" cx="264" r="10"/><circle cy="452" cx="246" r="8"/></g>
</svg>

